<svg width="55" height="62" viewBox="0 0 55 62" fill="none" xmlns="http://www.w3.org/2000/svg">
    <path d="M51.7667 16.9333V44.8L39.575 51.7667M51.7667 16.9333L39.575 9.96667M51.7667 16.9333L27.3834 30.8667M39.575 51.7667L27.3834 58.7334M39.575 51.7667V37.0593L51.7667 30.8667M27.3834 58.7334L15.1917 51.7667M27.3834 58.7334V30.8667M15.1917 51.7667L3 44.8V16.9333M15.1917 51.7667V37.0593L3 30.8667M3 16.9333L15.1917 9.96667M3 16.9333L27.3834 30.8667M15.1917 9.96667L27.3834 3L39.575 9.96667M15.1917 9.96667L27.3834 16.9333L39.575 9.96667" stroke="#6DA0A0" stroke-width="5.22501" stroke-linecap="round" stroke-linejoin="round"/>
</svg>
